<svg xmlns="http://www.w3.org/2000/svg" width="112" height="48" viewBox="0 0 112 48">
    <g fill="none" fill-rule="evenodd">
        <path fill="#FFF" d="M4.329 14.785h17.285l-1.587 4.945-4.484-.001.01 17.247-.001 1.033H9.955V19.73H4.988l-.655.01-.004-4.954zm45.602 0h17.685l-1.587 4.945-4.884-.001.01 17.247-.001 1.045h-5.597V19.73H50.59l-.655.01-.004-4.954zm-27.262 7.893v-.505h5.542l.002.505.008 13.874-.016 1.458h-5.503v-.79l-.033-14.542zm7.74-6.863V14.72H35.888v.951l.006 9.866 5.535-5.384h6.609l-6.94 6.735 7.773 11.121h-6.1l-5.187-7.711-1.644 1.595.003 6.128-5.514-.012v-.495l-.022-21.699zm58.656 0V14.72h5.481v.951l.006 9.866 5.535-5.384h6.609l-6.94 6.735 7.773 11.121h-6.1l-5.187-7.711-1.644 1.595.003 6.128-5.514-.012v-.495l-.022-21.699zM80.748 29.76c.11-.395.164-.806.164-1.236 0-.649-.121-1.251-.362-1.81a4.543 4.543 0 0 0-2.442-2.429 4.527 4.527 0 0 0-1.587-.348l.048-.002-.135-.003-.054.001-.064-.001a4.864 4.864 0 0 0-1.238.161 4.642 4.642 0 0 0-1.104.455 4.42 4.42 0 0 0-.929.71 4.574 4.574 0 0 0-.715.924 4.605 4.605 0 0 0-.627 2.342 4.655 4.655 0 0 0 .63 2.338c.199.341.437.65.716.928a4.511 4.511 0 0 0 2.515 1.272c.246.04.498.061.757.061l.054-.001.064.001c.04 0 .077-.002.117-.003l-.058-.002a4.529 4.529 0 0 0 3.073-1.328 4.536 4.536 0 0 0 1.177-2.03zm4.294-4.965c.496 1.148.744 2.39.745 3.725 0 .884-.112 1.733-.338 2.544a9.596 9.596 0 0 1-.952 2.27 9.332 9.332 0 0 1-3.383 3.38 9.46 9.46 0 0 1-3.015 1.115l-.182.032a10.241 10.241 0 0 1-.848.101c-.185.014-.371.02-.56.024-.058.001-.115.004-.174.004-.06 0-.12-.003-.179-.004a10.497 10.497 0 0 1-.996-.065c-.046-.005-.093-.012-.14-.019a9.219 9.219 0 0 1-.273-.039l-.162-.027a9.206 9.206 0 0 1-.266-.052l-.137-.029a9.413 9.413 0 0 1-2.67-1.041 9.338 9.338 0 0 1-3.388-3.38 9.572 9.572 0 0 1-.954-2.27 9.429 9.429 0 0 1-.341-2.544c0-.883.112-1.734.338-2.55a9.404 9.404 0 0 1 .951-2.27c.41-.697.9-1.331 1.472-1.903a9.13 9.13 0 0 1 1.913-1.463 9.59 9.59 0 0 1 2.806-1.063l.18-.034a9.774 9.774 0 0 1 1.609-.167c.075-.002.15-.004.227-.004.081 0 .162.003.243.005a9.764 9.764 0 0 1 1.406.135l.028.004c.274.047.544.106.811.176.023.006.047.011.07.018.06.016.122.035.182.053a7.091 7.091 0 0 1 .512.167 7.441 7.441 0 0 1 .437.17 9.352 9.352 0 0 1 3.005 2.003 9.529 9.529 0 0 1 2.023 2.998zm-56.81-7.223a2.787 2.787 0 1 1-5.574 0 2.787 2.787 0 0 1 5.573 0z"/>
        <path fill="#FF004F" d="M86.518 24.795a9.528 9.528 0 0 0-2.024-2.998 9.352 9.352 0 0 0-3.004-2.003 9.4 9.4 0 0 0-3.69-.728l-.117.002v-.001h-1.207l.092.004a9.736 9.736 0 0 1 1.406.135c.01 0 .018.002.028.004.274.047.545.105.811.176.023.006.047.011.07.018.06.016.121.035.182.053a7.702 7.702 0 0 1 .512.167l.118.043a9.35 9.35 0 0 1 3.324 2.13 9.529 9.529 0 0 1 2.023 2.998c.496 1.148.744 2.39.745 3.725.001.884-.112 1.732-.338 2.544a9.58 9.58 0 0 1-.952 2.27 9.322 9.322 0 0 1-3.384 3.38 9.46 9.46 0 0 1-2.638 1.038l-.144.031a9.719 9.719 0 0 1-1.821.203l-.007.002h1.134l-.001-.002c.058.001.116.004.175.004a9.471 9.471 0 0 0 4.779-1.276 9.339 9.339 0 0 0 3.383-3.38 9.59 9.59 0 0 0 .952-2.27c.226-.812.339-1.66.338-2.544 0-1.335-.25-2.577-.745-3.725"/>
        <path fill="#00F2EA" d="M75.16 37.921l-.14-.019a9.588 9.588 0 0 1-.7-.118l-.138-.029a9.407 9.407 0 0 1-2.67-1.041 9.353 9.353 0 0 1-3.388-3.38 9.578 9.578 0 0 1-.954-2.27 9.43 9.43 0 0 1-.34-2.544 9.504 9.504 0 0 1 1.288-4.82c.41-.697.9-1.331 1.472-1.903a9.117 9.117 0 0 1 1.913-1.463 9.596 9.596 0 0 1 4.595-1.264l.065-.003h-1.18v.001l-.122-.002a9.67 9.67 0 0 0-4.822 1.268 9.134 9.134 0 0 0-1.913 1.463 9.41 9.41 0 0 0-1.471 1.903 9.506 9.506 0 0 0-1.29 4.82c0 .885.114 1.732.34 2.544.227.812.545 1.57.955 2.27a9.343 9.343 0 0 0 5.662 4.324 9.689 9.689 0 0 0 2.701.33H76.161l-.005-.002a10.112 10.112 0 0 1-.996-.065"/>
    </g>
</svg>
